<?xml version="1.0" encoding="UTF-8" standalone="no"?><!DOCTYPE svg PUBLIC "-//W3C//DTD SVG 1.1//EN" "http://www.w3.org/Graphics/SVG/1.1/DTD/svg11.dtd"><svg width="100%" height="100%" viewBox="0 0 2488 1767" version="1.1" xmlns="http://www.w3.org/2000/svg" xmlns:xlink="http://www.w3.org/1999/xlink" xml:space="preserve" xmlns:serif="http://www.serif.com/" style="fill-rule:evenodd;clip-rule:evenodd;stroke-linejoin:round;stroke-miterlimit:2;"><rect id="Logo-complet-rouge-blanc" serif:id="Logo complet+rouge blanc" x="-903.967" y="-1370.833" width="4188.042" height="4380.75" style="fill:none;"/><g><g><g><g><path d="M1728.071,274.596c-4.929,6.404 -12.596,9.608 -23.013,9.608c-11.854,0 -24.696,-3.954 -38.529,-11.858c-13.829,-8.562 -25.025,-12.513 -33.588,-11.854c-12.517,1.317 -29.312,16.796 -50.387,46.433c-20.417,29.637 -30.625,53.679 -30.625,72.121l0.987,210.433c0,36.883 8.892,62.242 26.675,76.071c12.513,9.879 33.917,15.479 64.217,16.796l0,16.796l-223.279,0l0,-16.796c29.642,-5.267 49.4,-12.512 59.279,-21.733c13.171,-12.517 19.758,-33.921 19.758,-64.217l0,-252.917c0,-47.788 -14.329,-73.058 -42.983,-75.817c2.917,22.117 4.375,45.412 4.375,69.888c0,92.212 -24.371,170.588 -73.108,235.133c-64.546,84.304 -161.696,126.458 -291.446,126.458l-270.7,0l0,-19.758c38.862,-3.296 64.875,-11.196 78.05,-23.712c13.171,-13.171 19.758,-39.188 19.758,-78.046l0,-326.133c0,-40.833 -6.917,-67.837 -20.746,-81.008c-11.196,-10.542 -36.883,-17.783 -77.062,-21.737l0,-19.758l256.867,0c117.896,0 209.446,30.625 274.65,91.879c49.325,45.096 81.063,-52.542 95.204,21.033c26.383,-10.837 59.883,-25.717 100.492,-44.638l0,126.458l10.867,-16.796c29.638,-42.154 51.375,-70.475 65.204,-84.963c18.442,-18.442 37.542,-27.663 57.3,-27.663c27.371,0 43.133,13.263 47.292,39.787c22.188,-9 47.617,-19.958 76.283,-32.871l0,375.421c0,38.2 5.596,64.875 16.796,80.021c10.537,14.492 32.6,23.054 66.192,25.688l0,16.796l-226.242,0l0,-16.796c34.25,-1.317 56.971,-7.904 68.171,-19.758c13.829,-14.492 20.746,-43.142 20.746,-85.95l0,-231.183c0,-37.438 -9.154,-61.054 -27.454,-70.858Zm-345.162,63.946c0,-109.333 -30.296,-37.979 -90.892,-99.892c-48.079,-50.717 -133.042,-76.071 -254.892,-76.071c-23.708,0 -38.858,4.938 -45.446,14.817c-6.583,9.879 -5.925,18.112 -5.925,36.554l0,399.242c0,22.392 5.267,37.212 15.808,44.454c7.9,5.271 24.038,7.904 48.408,7.904c221.958,0 332.938,-109.004 332.938,-327.008Zm430.904,-182.475c0,30.958 -13.5,46.438 -40.504,46.438c-12.513,0 -22.396,-5.6 -29.638,-16.796c-5.929,-9.221 -8.892,-19.1 -8.892,-29.642c0,-9.221 3.292,-19.1 9.879,-29.637c6.583,-9.879 16.138,-14.817 28.65,-14.817c11.196,0 21.075,4.279 29.638,12.842c7.246,9.221 10.867,19.758 10.867,31.612Zm-532.825,998.408c-36.104,86.075 -117.429,129.112 -209.104,129.112c-140.575,0 -246.179,-101.733 -246.179,-246.871c0,-145.137 106.275,-246.871 242.142,-246.871c91.479,0 170.846,46.121 204.475,122.079l-60.533,29.163c-20.85,-57.646 -78.696,-90.879 -143.942,-90.879c-98.2,0 -175.55,76.638 -175.55,186.508c0,109.871 76.675,186.508 179.588,186.508c67.263,0 127.125,-31.875 150.667,-100.375l56.833,24.833c-2.863,-13.246 -4.371,-27.213 -4.371,-41.788c0,-104.446 77.35,-177.692 177.571,-177.692c100.221,0 177.571,73.246 177.571,177.692c0,104.442 -77.35,177.692 -177.571,177.692c-83.821,0 -151.642,-51.238 -171.596,-129.112Zm171.596,73.496c65.246,0 115.692,-50.188 115.692,-122.075c0,-71.892 -50.446,-122.079 -115.692,-122.079c-65.242,0 -115.688,50.188 -115.688,122.079c0,71.888 50.446,122.075 115.688,122.075Zm521.95,-578.225l0,626.379l-60.533,0l0,-59.004c-21.525,38.658 -62.554,66.467 -120.4,66.467c-94.167,0 -160.754,-73.25 -160.754,-177.692c0,-104.446 65.917,-177.692 161.425,-177.692c57.175,0 98.204,26.45 119.729,66.463l0.162,-209.662l-0.025,-6.008c0,-15.196 1.513,-440.454 1.513,-440.454c0,-48.083 -17.121,-72.121 -51.371,-72.121c-11.196,0 -51.125,1.404 -54.417,2.062l0,-18.771c4.8,-1.421 10.867,-3.129 17.904,-5.121c5.421,-1.533 11.417,-3.233 17.85,-5.1c1.483,-0.425 2.988,-0.862 4.512,-1.308c35.208,-10.296 81.933,-25.146 119.858,-43.883l-0.988,100.771l9.879,-14.821c38.2,-56.642 87.271,-84.963 147.204,-84.963c43.471,0 80.025,21.075 109.663,63.229c30.3,42.808 45.446,99.125 45.446,168.938c0,69.817 -16.792,131.729 -50.383,185.737c-38.2,61.25 -87.929,91.879 -149.179,91.879c-41.496,0 -73.504,-18.442 -107.096,-55.325Zm-169.5,578.225c61.883,0 108.967,-48.15 108.967,-122.075c0,-73.925 -47.083,-122.079 -108.967,-122.079c-64.571,0 -110.308,50.188 -110.308,122.079c0,71.888 45.738,122.075 110.308,122.075Zm419.846,-766.925c0,-48.737 3.954,-125.271 -13.171,-159.521c-25.029,-49.4 -77.721,-39.058 -133.046,-39.058c-20.417,0 -42.479,7.904 -66.192,23.712c-26.346,16.467 -40.833,35.237 -43.471,56.312l0,249.95c0,15.808 12.188,32.275 36.554,49.4c24.371,17.783 50.058,26.675 77.062,26.675c94.842,0 142.263,-69.158 142.263,-207.471Zm93.717,644.192c0,8.817 -0.671,17.633 -1.346,25.771l-276.442,0c9.417,58.329 52.462,96.308 118.379,96.308c41.7,0 75.333,-15.6 94.837,-49.508l55.829,24.412c-28.925,55.617 -87.442,80.708 -152.012,80.708c-108.962,0 -179.587,-73.246 -179.587,-177.692c0,-104.446 73.313,-177.692 172.863,-177.692c100.217,0 167.479,73.246 167.479,177.692Zm-164.792,-122.079c-57.842,0 -102.238,37.983 -112.325,94.95l217.254,0c-8.742,-57.646 -47.754,-94.95 -104.929,-94.95Z" style="fill:#fff;"/><g><text x="909.625px" y="1525.738px" style="font-family:'Helvetica';font-size:158.15px;fill:#ed5b53;">S</text><text x="1029.346px" y="1525.738px" style="font-family:'Helvetica';font-size:158.15px;fill:#ed5b53;">T<tspan x="1151.438px 1290.292px 1433.575px 1506.958px " y="1525.738px 1525.738px 1525.738px 1525.738px ">UDIO</tspan></text></g></g><g><g><g><path d="M457.433,879.867l-245.796,244.942l-150.138,-161.242l0.021,-0.021c1.554,0.633 99.325,39.779 131.467,-73.287c5.275,-18.55 -16.825,-56.113 0.479,-73.421c27.646,-27.642 112.162,-124.708 112.162,-124.708l-0.283,-0.888l-0.087,-0.404c0,0 -81.112,-86.671 -107.475,-113.033c-17.529,-17.533 3.621,-55.283 -2.475,-74.342c-35.75,-111.758 -131.912,-69.788 -133.779,-68.963l-0.029,-0.029c0,0 100.479,-213.821 150.137,-164.167c49.654,49.658 259.329,263.538 259.329,263.538l3.108,-0.021l259.308,-263.517l150.133,164.167l-0.025,0.029c-1.867,-0.825 -98.033,-42.796 -133.779,68.962c-6.096,19.058 15.054,56.808 -2.475,74.342c-25.6,25.596 -107.833,113.408 -107.833,113.408l0.117,0.9l0.092,0.262c0,0 84.533,97.054 111.938,124.463c17.308,17.308 -4.792,54.871 0.483,73.421c32.138,113.067 129.908,73.921 131.467,73.287l0.017,0.021c0,0 -100.5,210.875 -150.133,161.242c-17.567,-17.567 -55.221,-55.108 -96.542,-96.279c-86.462,-104.412 -94.65,-168.604 -55.942,-207.317c34.017,-34.017 54.192,-73.033 54.192,-121.137c0,-75.483 -51.546,-139.017 -121.329,-157.296c-13.175,-3.45 -27,-5.288 -41.254,-5.288c-14.729,0 -29.004,1.963 -42.579,5.642c-69.108,18.733 -120.004,81.942 -120.004,156.942c0,75.867 78.463,157.571 122.408,157.571c11.175,0 25.1,22.221 25.1,22.221Z" style="fill:#fff;"/></g></g></g></g></g></g></svg>